<?xml version="1.0" standalone="no"?>
<!DOCTYPE svg PUBLIC "-//W3C//DTD SVG 20010904//EN"
 "http://www.w3.org/TR/2001/REC-SVG-20010904/DTD/svg10.dtd">
<svg version="1.0" xmlns="http://www.w3.org/2000/svg"
 width="700.000000pt" height="700.000000pt" viewBox="0 0 700.000000 700.000000"
 preserveAspectRatio="xMidYMid meet">
<metadata>
Created by potrace 1.11, written by Peter Selinger 2001-2013
</metadata>
<g transform="translate(0.000000,700.000000) scale(0.100000,-0.100000)"
fill="#000000" stroke="none">
<path d="M2350 5750 c-630 -225 -1215 -435 -1300 -465 l-156 -56 199 -1722
c110 -947 200 -1723 201 -1723 0 -1 498 -277 1105 -613 l1103 -611 1097 607
c603 333 1100 609 1104 613 6 5 390 3292 400 3418 l2 34 -1300 464 c-715 255
-1302 464 -1305 463 -3 0 -520 -184 -1150 -409z m1959 -2027 c442 -995 806
-1814 808 -1820 4 -10 -60 -13 -299 -13 l-304 0 -161 403 -161 402 -694 3
-694 2 -161 -402 -161 -403 -306 -3 c-290 -2 -306 -1 -298 15 5 10 370 829
812 1821 442 991 806 1802 810 1802 3 0 367 -813 809 -1807z"/>
<path d="M3268 3792 c-125 -301 -230 -555 -234 -564 -6 -17 21 -18 466 -18
445 0 472 1 466 18 -29 77 -462 1112 -466 1112 -3 0 -107 -246 -232 -548z"/>
</g>
</svg>
